<svg xmlns="http://www.w3.org/2000/svg" width="2396" height="2396" shape-rendering="geometricPrecision" text-rendering="geometricPrecision" image-rendering="optimizeQuality" viewBox="0 0 2088 2088"><path d="M2088 1044c0-577-467-1044-1044-1044-577 0-1044 467-1044 1044 0 577 467 1044 1044 1044 577 0 1044-467 1044-1044zm-1472-74l65 0 0 263-65 0 0-263zm-74 132c0 77-49 138-130 138-37 0-71-15-90-46l-2 0 0 39-62 0 0-414 66 0 0 185 1 0c14-17 40-40 90-40 75 0 127 60 127 138zm149-221c0 22-19 39-43 39-24 0-42-18-42-39 0-21 18-39 42-39 24 0 43 17 43 39zm176-36l-46 145-59 0 38-145 67 0zm349 257c0 77-49 138-130 138-37 0-71-15-90-46l-1 0 0 39-63 0 0-414 66 0 0 185 2 0c13-17 40-40 89-40 75 0 127 60 127 138zm295 131l-59 0 0-36-2 0c-19 29-49 43-84 43-49 0-96-27-96-79 0-86 100-92 165-92l17 0 0-7c0-32-26-49-61-49-27 0-52 11-70 27l-34-34c29-30 70-42 112-42 112 0 112 81 112 118l0 151zm336-263l-113 120 120 143-87 0-104-134-1 0 0 134-66 0 0-414 66 0 0 260 101-109 84 0zm-399 160l0-15-14 0c-36 0-98 3-98 41 0 24 24 34 46 34 44 0 66-23 66-60zm-298-28c0-41-29-79-77-79-48 0-77 38-77 79 0 41 29 78 77 78 48 0 77-37 77-78zm-674 0c0-41-29-79-77-79-48 0-77 38-77 79 0 41 29 78 77 78 48 0 77-37 77-78z" fill="#c6c4b4"/></svg>